<?xml version="1.0" encoding="UTF-8"?>
<!DOCTYPE svg PUBLIC "-//W3C//DTD SVG 1.1//EN" "http://www.w3.org/Graphics/SVG/1.1/DTD/svg11.dtd">
<!-- Creator: CorelDRAW X7 -->
<svg xmlns="http://www.w3.org/2000/svg" xml:space="preserve" width="6.69291in" height="1.5748in" version="1.1" style="shape-rendering:geometricPrecision; text-rendering:geometricPrecision; image-rendering:optimizeQuality; fill-rule:evenodd; clip-rule:evenodd"
viewBox="0 0 6693 1575"
 xmlns:xlink="http://www.w3.org/1999/xlink">
 <defs>
  <style type="text/css">
   <![CDATA[
    .fil1 {fill:#EAA435}
    .fil0 {fill:#0077BD}
   ]]>
  </style>
 </defs>
 <g id="Layer_x0020_1">
  <metadata id="CorelCorpID_0Corel-Layer"/>
  <g id="_1074352339408">
   <path class="fil0" d="M1719 581c47,-9 93,-14 137,-14 67,0 117,13 150,39 33,25 50,65 50,119 0,52 -16,92 -48,118 -32,27 -79,41 -142,41 -5,0 -13,-1 -23,-1l-13 0 0 119 -111 0 0 -421zm149 220c27,0 48,-6 61,-17 12,-12 19,-31 19,-58 0,-26 -7,-46 -20,-58 -13,-12 -33,-18 -61,-18 -15,0 -27,1 -37,3l0 146c14,1 26,2 38,2zm329 201l0 -337 -133 0 0 -92 377 0 0 92 -133 0 0 337 -111 0zm298 6c-21,0 -38,-6 -50,-18 -13,-12 -19,-27 -19,-47 0,-20 6,-36 18,-48 13,-11 30,-17 51,-17 14,0 27,3 37,8 11,5 19,13 24,23 6,9 9,21 9,34 0,13 -3,24 -9,34 -6,9 -14,17 -24,23 -11,5 -23,8 -37,8zm268 -427c47,-9 93,-14 137,-14 67,0 117,13 150,39 33,25 50,65 50,119 0,52 -16,92 -48,118 -32,27 -79,41 -142,41 -5,0 -13,-1 -23,-1l-13 0 0 119 -111 0 0 -421zm149 220c27,0 48,-6 61,-17 12,-12 19,-31 19,-58 0,-26 -7,-46 -20,-58 -13,-12 -33,-18 -61,-18 -15,0 -27,1 -37,3l0 146c14,1 26,2 38,2zm429 207c-65,0 -113,-16 -143,-47 -31,-31 -46,-78 -46,-142l0 -246 112 0 0 256c0,31 6,53 19,67 13,14 32,21 58,21 26,0 46,-7 59,-21 12,-14 19,-36 19,-67l0 -256 109 0 0 246c0,64 -15,111 -45,142 -31,31 -78,47 -142,47zm370 0c-22,0 -44,-2 -65,-5 -22,-3 -42,-8 -60,-14l0 -90c18,6 38,11 61,15 23,3 44,5 64,5 25,0 43,-3 53,-10 11,-7 16,-17 16,-30 0,-7 -1,-13 -4,-18 -3,-4 -9,-9 -16,-13 -8,-3 -19,-7 -34,-11l-35 -9c-39,-10 -68,-25 -87,-45 -20,-21 -29,-48 -29,-81 0,-43 16,-76 47,-100 32,-23 79,-35 141,-35 19,0 38,1 56,3 18,3 34,6 49,9l0 90c-14,-4 -29,-7 -46,-9 -18,-3 -35,-4 -53,-4 -30,0 -52,4 -65,11 -12,6 -19,16 -19,29 0,7 2,12 4,17 3,4 8,8 14,12 7,3 17,7 29,10l35 9c43,10 74,26 94,46 20,21 30,48 30,82 0,27 -7,52 -22,72 -14,21 -34,36 -61,47 -27,11 -60,17 -97,17zm229 -427c47,-9 92,-14 137,-14 67,0 117,13 150,39 33,25 49,65 49,119 0,52 -16,92 -48,118 -32,27 -79,41 -141,41 -6,0 -14,-1 -24,-1l-12 0 0 119 -111 0 0 -421zm148 220c28,0 48,-6 61,-17 13,-12 19,-31 19,-58 0,-26 -6,-46 -19,-58 -13,-12 -34,-18 -62,-18 -14,0 -26,1 -36,3l0 146c13,1 26,2 37,2zm352 113l208 0 0 88 -318 0 0 -429 315 0 0 88 -205 0 0 78 175 0 0 88 -175 0 0 87zm362 88l0 -337 -133 0 0 -92 377 0 0 92 -132 0 0 337 -112 0zm283 0l0 -429 111 0 0 429 -111 0zm462 -429l104 0 0 429 -111 0 -170 -263 0 263 -104 0 0 -429 111 0 170 263 0 -263zm298 434c-19,0 -40,-1 -62,-2 -22,-1 -42,-3 -62,-5l0 -417c21,-4 45,-8 70,-11 26,-3 51,-4 75,-4 81,0 142,18 183,54 41,36 61,91 61,165 0,52 -10,94 -29,126 -20,32 -49,56 -88,71 -39,15 -88,23 -148,23zm30 -90c27,0 50,-4 68,-13 18,-8 31,-22 40,-41 8,-19 13,-45 13,-76 0,-31 -5,-56 -14,-75 -9,-19 -22,-33 -40,-42 -18,-9 -40,-13 -68,-13 -6,0 -13,1 -21,1 -8,1 -15,2 -20,3l0 255c11,1 26,1 42,1zm490 91c-43,0 -81,-8 -112,-25 -32,-16 -56,-41 -73,-74 -17,-33 -26,-73 -26,-122 0,-48 9,-88 26,-121 17,-33 41,-58 73,-74 31,-17 69,-25 112,-25 43,0 80,8 112,25 32,16 56,41 73,74 17,33 26,73 26,121 0,49 -9,89 -26,122 -17,33 -41,58 -73,74 -32,17 -69,25 -112,25zm0 -89c32,0 56,-11 72,-32 17,-20 25,-53 25,-97 0,-47 -8,-80 -25,-102 -16,-21 -40,-32 -72,-32 -32,0 -56,11 -72,31 -17,21 -25,54 -25,98 0,47 8,81 24,102 17,21 41,32 73,32z"/>
   <g>
    <path class="fil1" d="M684 1433c356,47 683,-204 730,-561 47,-357 -204,-684 -561,-730 -357,-47 -684,204 -730,561 -47,356 204,683 561,730zm-417 -498c-8,-27 -36,-42 -63,-34 -27,8 -42,36 -34,63 8,27 36,43 63,34 27,-8 42,-36 34,-63zm725 -619c26,12 56,1 68,-25 12,-25 1,-56 -25,-68 -25,-12 -55,-1 -67,25 -12,25 -1,56 24,68zm123 81c22,19 54,17 72,-4 19,-21 17,-53 -4,-72 -21,-19 -53,-17 -72,4 -19,22 -17,54 4,72zm96 114c15,23 46,30 70,15 24,-15 31,-46 16,-70 -15,-24 -46,-31 -70,-16 -24,15 -31,47 -16,71zm60 135c8,27 36,43 63,35 27,-8 43,-36 35,-63 -8,-27 -36,-43 -63,-35 -27,8 -43,36 -35,63zm19 147c0,28 23,51 51,51 28,0 51,-23 51,-51 1,-28 -22,-51 -50,-51 -28,0 -51,23 -52,51zm-22 146c-8,27 7,55 34,63 27,9 56,-7 64,-34 8,-27 -8,-55 -35,-63 -27,-8 -55,7 -63,34zm-1022 -150c0,-29 -23,-51 -51,-51 -28,0 -51,23 -51,51 0,28 23,51 51,51 29,0 51,-23 51,-51zm21 -147c7,-27 -8,-55 -35,-63 -27,-8 -56,8 -63,35 -8,27 8,55 35,63 27,8 55,-8 63,-35zm61 -135c15,-24 8,-55 -16,-70 -24,-15 -55,-8 -70,16 -15,23 -8,55 15,70 24,15 56,8 71,-16zm96 -112c21,-19 23,-51 5,-72 -19,-21 -51,-23 -72,-5 -21,19 -23,51 -5,72 19,21 51,23 72,5zm124 -81c26,-12 37,-42 25,-68 -12,-25 -43,-36 -68,-24 -26,11 -37,42 -25,67 12,26 43,37 68,25zm142 -43c28,-4 47,-30 43,-58 -5,-28 -31,-47 -59,-43 -27,5 -47,31 -42,59 4,27 30,46 58,42zm148 -1c28,4 54,-16 57,-44 4,-28 -16,-54 -44,-57 -28,-4 -53,16 -57,44 -4,28 16,53 44,57zm367 803c-15,24 -8,55 15,71 24,15 56,8 71,-15 15,-24 8,-56 -15,-71 -24,-15 -55,-8 -71,15zm-97 111c-22,19 -24,51 -6,72 19,22 51,24 72,6 21,-19 24,-51 5,-72 -18,-22 -50,-24 -71,-6zm-126 80c-25,11 -36,41 -25,67 12,26 42,37 68,25 25,-11 37,-41 25,-67 -12,-26 -42,-37 -68,-25zm-142 41c-28,4 -47,29 -43,57 4,28 30,48 58,44 28,-4 47,-30 43,-58 -4,-28 -30,-47 -58,-43zm-148 -1c-28,-4 -54,15 -58,43 -4,28 16,54 44,58 28,4 53,-15 57,-43 4,-28 -15,-54 -43,-58zm-142 -42c-25,-12 -56,0 -67,25 -12,26 -1,56 25,68 26,11 56,0 68,-26 11,-25 0,-55 -26,-67zm-124 -80c-22,-19 -54,-16 -72,5 -18,21 -16,53 5,72 22,18 54,16 72,-5 19,-22 16,-54 -5,-72zm-97 -112c-15,-24 -47,-31 -71,-15 -23,15 -30,46 -15,70 16,24 47,30 71,15 23,-15 30,-47 15,-70zm377 195c263,35 505,-151 540,-415 35,-264 -151,-506 -415,-540 -264,-35 -506,151 -541,415 -34,264 152,506 416,540z"/>
    <path class="fil1" d="M1086 1106c-81,81 -193,131 -318,131 -124,0 -237,-50 -318,-131 -81,-82 -132,-194 -132,-319 0,-124 51,-236 132,-318 81,-81 194,-132 318,-132 125,0 237,51 318,132 82,82 132,194 132,318 0,125 -50,237 -132,319zm-318 112c119,0 227,-48 305,-126 78,-78 126,-186 126,-305 0,-119 -48,-226 -126,-304 -78,-78 -186,-127 -305,-127 -119,0 -227,49 -305,127 -78,78 -126,185 -126,304 0,119 48,227 126,305 78,78 186,126 305,126z"/>
    <path class="fil1" d="M378 681l345 -289 0 289 -345 0zm68 101l5 0c5,0 9,-1 12,-3 2,-2 4,-5 4,-9 0,-4 -2,-8 -4,-10 -3,-2 -7,-3 -12,-3l-5 0 0 25zm0 51l-18 0 0 -92 23 0c6,0 11,0 14,1 3,1 6,2 8,3 4,3 7,6 9,10 2,5 3,9 3,14 0,9 -3,16 -8,21 -6,5 -14,8 -24,8l-7 0 0 35zm49 -92l18 0 0 53c0,9 1,14 3,18 1,3 4,4 9,4 4,0 7,-1 9,-4 1,-4 2,-9 2,-18l0 -53 18 0 0 59c0,6 0,11 -1,14 0,3 -2,6 -3,9 -3,4 -7,7 -11,9 -4,2 -9,3 -14,3 -6,0 -11,-1 -15,-3 -4,-2 -7,-5 -10,-9 -2,-3 -3,-5 -4,-8 -1,-4 -1,-9 -1,-15l0 -59zm69 64l16 0 0 1c0,4 1,7 4,9 2,3 4,4 8,4 3,0 6,-1 8,-4 2,-2 3,-5 3,-8 0,-6 -4,-11 -12,-13 -2,0 -2,-1 -3,-1 -7,-2 -12,-5 -16,-9 -3,-5 -5,-10 -5,-16 0,-9 2,-16 7,-21 5,-5 11,-8 19,-8 8,0 14,3 18,7 4,5 7,12 7,20l-16 0 0 -1c0,-3 -1,-5 -3,-7 -1,-2 -4,-3 -7,-3 -2,0 -5,1 -6,3 -2,2 -3,4 -3,8 0,1 0,2 0,3 1,1 1,2 2,3 2,2 6,4 11,5 3,1 5,2 6,2 6,2 11,5 14,9 3,4 5,9 5,16 0,9 -3,17 -8,22 -6,6 -13,9 -21,9 -9,0 -15,-3 -20,-8 -5,-6 -8,-13 -8,-22zm86 -23l4 0c5,0 9,-1 12,-3 3,-2 4,-5 4,-9 0,-4 -1,-8 -4,-10 -3,-2 -6,-3 -12,-3l-4 0 0 25zm0 51l-18 0 0 -92 23 0c5,0 10,0 13,1 4,1 6,2 8,3 4,3 7,6 9,10 3,5 4,9 4,14 0,9 -3,16 -9,21 -6,5 -14,8 -24,8l-6 0 0 35zm98 0l-50 0 0 -92 50 0 0 16 -32 0 0 21 32 0 0 16 -32 0 0 23 32 0 0 16zm61 -92l0 16 -18 0 0 76 -18 0 0 -76 -17 0 0 -16 53 0zm8 92l0 -92 18 0 0 92 -18 0zm51 0l-17 0 0 -92 17 0 38 59 0 -59 18 0 0 92 -17 0 -39 -60 0 60zm101 -16c10,0 17,-2 22,-7 5,-5 7,-12 7,-23 0,-9 -2,-17 -7,-22 -6,-6 -13,-8 -22,-8l-12 0 0 60 12 0zm1 16l-31 0 0 -92 31 0c8,0 15,1 20,3 5,1 9,4 13,8 5,4 8,9 10,15 3,6 4,13 4,21 0,8 -2,15 -5,22 -3,7 -8,12 -14,16 -3,3 -7,5 -11,6 -4,1 -10,1 -17,1zm73 -47c0,4 0,8 2,11 1,4 3,7 5,10 3,3 6,5 10,7 4,2 7,2 11,2 8,0 15,-2 20,-8 6,-6 9,-13 9,-22 0,-7 -3,-14 -9,-20 -5,-5 -12,-8 -20,-8 -8,0 -14,3 -20,8 -6,6 -8,13 -8,20zm-19 1c0,-5 0,-10 2,-14 1,-5 3,-9 6,-13 4,-7 10,-12 17,-15 7,-4 14,-6 22,-6 6,0 12,2 18,4 6,2 11,6 15,10 5,5 8,10 11,16 2,5 3,11 3,18 0,6 -1,12 -3,18 -2,6 -6,11 -10,16 -4,4 -10,8 -16,10 -5,3 -12,4 -18,4 -7,0 -13,-1 -19,-4 -6,-2 -11,-6 -15,-10 -5,-5 -8,-10 -10,-16 -2,-5 -3,-12 -3,-18zm134 106l-345 289 0 -289 345 0zm-780 0l345 289 0 -289 -345 0zm780 -212l-345 -289 0 289 345 0z"/>
   </g>
  </g>
 </g>
</svg>
